<mxfile host="65bd71144e">
    <diagram name="Page-1" id="sI1X7EZZRvl0cMKL3G0P">
        <mxGraphModel dx="1063" dy="253" grid="0" gridSize="10" guides="1" tooltips="1" connect="1" arrows="1" fold="1" page="1" pageScale="1" pageWidth="850" pageHeight="1100" math="0" shadow="0">
            <root>
                <mxCell id="0"/>
                <mxCell id="1" parent="0"/>
                <mxCell id="MKfxXZHFSIo7X0ozntGp-12" value="" style="rounded=0;whiteSpace=wrap;html=1;rotation=32;fillColor=#000000;" parent="1" vertex="1">
                    <mxGeometry x="-150" y="304" width="20" height="10" as="geometry"/>
                </mxCell>
                <mxCell id="MKfxXZHFSIo7X0ozntGp-13" value="" style="triangle;whiteSpace=wrap;html=1;rotation=212;fillColor=#000000;" parent="1" vertex="1">
                    <mxGeometry x="-131.99675210872084" y="311.9964711834958" width="10" height="10" as="geometry"/>
                </mxCell>
                <mxCell id="3" value="" style="endArrow=none;html=1;edgeStyle=orthogonalEdgeStyle;curved=1;" edge="1" parent="1">
                    <mxGeometry width="50" height="50" relative="1" as="geometry">
                        <mxPoint x="36" y="647" as="sourcePoint"/>
                        <mxPoint x="218" y="393" as="targetPoint"/>
                        <Array as="points">
                            <mxPoint x="36" y="393"/>
                        </Array>
                    </mxGeometry>
                </mxCell>
                <mxCell id="4" value="" style="endArrow=none;html=1;edgeStyle=orthogonalEdgeStyle;curved=1;" edge="1" parent="1">
                    <mxGeometry width="50" height="50" relative="1" as="geometry">
                        <mxPoint x="244.5" y="676" as="sourcePoint"/>
                        <mxPoint x="297" y="398" as="targetPoint"/>
                        <Array as="points">
                            <mxPoint x="245" y="398"/>
                        </Array>
                    </mxGeometry>
                </mxCell>
                <mxCell id="5" value="" style="endArrow=none;html=1;edgeStyle=orthogonalEdgeStyle;curved=1;" edge="1" parent="1">
                    <mxGeometry width="50" height="50" relative="1" as="geometry">
                        <mxPoint x="244" y="677" as="sourcePoint"/>
                        <mxPoint x="35" y="648" as="targetPoint"/>
                        <Array as="points">
                            <mxPoint x="35" y="677"/>
                        </Array>
                    </mxGeometry>
                </mxCell>
                <mxCell id="13" value="" style="endArrow=none;html=1;edgeStyle=orthogonalEdgeStyle;curved=1;" edge="1" parent="1">
                    <mxGeometry width="50" height="50" relative="1" as="geometry">
                        <mxPoint x="294" y="398" as="sourcePoint"/>
                        <mxPoint x="218" y="393" as="targetPoint"/>
                        <Array as="points">
                            <mxPoint x="297" y="398"/>
                            <mxPoint x="297" y="399"/>
                            <mxPoint x="282" y="399"/>
                            <mxPoint x="282" y="408"/>
                            <mxPoint x="214" y="408"/>
                            <mxPoint x="214" y="393"/>
                        </Array>
                    </mxGeometry>
                </mxCell>
                <mxCell id="14" value="" style="rounded=0;whiteSpace=wrap;html=1;rotation=60;strokeColor=none;" vertex="1" parent="1">
                    <mxGeometry x="279" y="387" width="38" height="18" as="geometry"/>
                </mxCell>
                <mxCell id="10" value="" style="ellipse;whiteSpace=wrap;html=1;aspect=fixed;" vertex="1" parent="1">
                    <mxGeometry x="277" y="396" width="13" height="13" as="geometry"/>
                </mxCell>
                <mxCell id="15" value="" style="ellipse;whiteSpace=wrap;html=1;aspect=fixed;" vertex="1" parent="1">
                    <mxGeometry x="207" y="385" width="13" height="13" as="geometry"/>
                </mxCell>
                <mxCell id="11" value="" style="ellipse;whiteSpace=wrap;html=1;aspect=fixed;" vertex="1" parent="1">
                    <mxGeometry x="229" y="400" width="13" height="13" as="geometry"/>
                </mxCell>
                <mxCell id="16" value="" style="ellipse;whiteSpace=wrap;html=1;aspect=fixed;" vertex="1" parent="1">
                    <mxGeometry x="242" y="530" width="13" height="13" as="geometry"/>
                </mxCell>
                <mxCell id="17" value="" style="ellipse;whiteSpace=wrap;html=1;aspect=fixed;" vertex="1" parent="1">
                    <mxGeometry x="54" y="490" width="13" height="13" as="geometry"/>
                </mxCell>
                <mxCell id="18" value="" style="ellipse;whiteSpace=wrap;html=1;aspect=fixed;" vertex="1" parent="1">
                    <mxGeometry x="137" y="522" width="13" height="13" as="geometry"/>
                </mxCell>
                <mxCell id="19" value="" style="ellipse;whiteSpace=wrap;html=1;aspect=fixed;" vertex="1" parent="1">
                    <mxGeometry x="30" y="647" width="13" height="13" as="geometry"/>
                </mxCell>
                <mxCell id="20" value="" style="ellipse;whiteSpace=wrap;html=1;aspect=fixed;" vertex="1" parent="1">
                    <mxGeometry x="238" y="670" width="13" height="13" as="geometry"/>
                </mxCell>
                <mxCell id="21" value="" style="ellipse;whiteSpace=wrap;html=1;aspect=fixed;" vertex="1" parent="1">
                    <mxGeometry x="125" y="667" width="13" height="13" as="geometry"/>
                </mxCell>
                <mxCell id="22" value="" style="endArrow=none;dashed=1;html=1;strokeWidth=1;curved=1;exitX=0;exitY=0.5;exitDx=0;exitDy=0;" edge="1" parent="1" source="MKfxXZHFSIo7X0ozntGp-13" target="17">
                    <mxGeometry width="50" height="50" relative="1" as="geometry">
                        <mxPoint x="72" y="583" as="sourcePoint"/>
                        <mxPoint x="122" y="533" as="targetPoint"/>
                    </mxGeometry>
                </mxCell>
                <mxCell id="23" value="" style="endArrow=none;dashed=1;html=1;strokeWidth=1;curved=1;exitX=0;exitY=0.5;exitDx=0;exitDy=0;" edge="1" parent="1" target="18">
                    <mxGeometry width="50" height="50" relative="1" as="geometry">
                        <mxPoint x="-112.2691592307242" y="328.62431195578165" as="sourcePoint"/>
                        <mxPoint x="65.84341706095825" y="501.9649988609334" as="targetPoint"/>
                    </mxGeometry>
                </mxCell>
                <mxCell id="24" value="" style="endArrow=none;dashed=1;html=1;strokeWidth=1;curved=1;exitX=0;exitY=0.5;exitDx=0;exitDy=0;" edge="1" parent="1" source="MKfxXZHFSIo7X0ozntGp-13" target="19">
                    <mxGeometry width="50" height="50" relative="1" as="geometry">
                        <mxPoint x="-102.2691592307242" y="338.62431195578165" as="sourcePoint"/>
                        <mxPoint x="75.84341706095825" y="511.9649988609334" as="targetPoint"/>
                    </mxGeometry>
                </mxCell>
                <mxCell id="25" value="" style="endArrow=none;dashed=1;html=1;strokeWidth=1;curved=1;exitX=0;exitY=0.5;exitDx=0;exitDy=0;" edge="1" parent="1" source="MKfxXZHFSIo7X0ozntGp-13" target="15">
                    <mxGeometry width="50" height="50" relative="1" as="geometry">
                        <mxPoint x="-92.2691592307242" y="348.62431195578165" as="sourcePoint"/>
                        <mxPoint x="85.84341706095825" y="521.9649988609334" as="targetPoint"/>
                    </mxGeometry>
                </mxCell>
                <mxCell id="26" value="" style="endArrow=none;dashed=1;html=1;strokeWidth=1;curved=1;exitX=0;exitY=0.5;exitDx=0;exitDy=0;" edge="1" parent="1" source="MKfxXZHFSIo7X0ozntGp-13" target="16">
                    <mxGeometry width="50" height="50" relative="1" as="geometry">
                        <mxPoint x="-82.2691592307242" y="358.62431195578165" as="sourcePoint"/>
                        <mxPoint x="95.84341706095825" y="531.9649988609334" as="targetPoint"/>
                    </mxGeometry>
                </mxCell>
                <mxCell id="27" value="" style="endArrow=none;dashed=1;html=1;strokeWidth=1;curved=1;exitX=0;exitY=0.5;exitDx=0;exitDy=0;" edge="1" parent="1" source="MKfxXZHFSIo7X0ozntGp-13" target="11">
                    <mxGeometry width="50" height="50" relative="1" as="geometry">
                        <mxPoint x="-72.2691592307242" y="368.62431195578165" as="sourcePoint"/>
                        <mxPoint x="105.84341706095825" y="541.9649988609334" as="targetPoint"/>
                    </mxGeometry>
                </mxCell>
                <mxCell id="28" value="" style="endArrow=none;dashed=1;html=1;strokeWidth=1;curved=1;exitX=0;exitY=0.5;exitDx=0;exitDy=0;" edge="1" parent="1" source="MKfxXZHFSIo7X0ozntGp-13" target="10">
                    <mxGeometry width="50" height="50" relative="1" as="geometry">
                        <mxPoint x="-62.2691592307242" y="378.62431195578165" as="sourcePoint"/>
                        <mxPoint x="115.84341706095825" y="551.9649988609334" as="targetPoint"/>
                    </mxGeometry>
                </mxCell>
                <mxCell id="29" value="" style="endArrow=none;dashed=1;html=1;strokeWidth=1;curved=1;exitX=0;exitY=0.5;exitDx=0;exitDy=0;" edge="1" parent="1" source="MKfxXZHFSIo7X0ozntGp-13" target="21">
                    <mxGeometry width="50" height="50" relative="1" as="geometry">
                        <mxPoint x="-52.2691592307242" y="388.62431195578165" as="sourcePoint"/>
                        <mxPoint x="125.84341706095825" y="561.9649988609334" as="targetPoint"/>
                    </mxGeometry>
                </mxCell>
                <mxCell id="30" value="" style="endArrow=none;dashed=1;html=1;strokeWidth=1;curved=1;exitX=0;exitY=0.5;exitDx=0;exitDy=0;" edge="1" parent="1" source="MKfxXZHFSIo7X0ozntGp-13" target="20">
                    <mxGeometry width="50" height="50" relative="1" as="geometry">
                        <mxPoint x="-42.2691592307242" y="398.62431195578165" as="sourcePoint"/>
                        <mxPoint x="135.84341706095825" y="571.9649988609334" as="targetPoint"/>
                    </mxGeometry>
                </mxCell>
            </root>
        </mxGraphModel>
    </diagram>
</mxfile>